HIERARCHY
ROOT Hips
{
    OFFSET   0.000000   0.000000   0.000000
    CHANNELS 6 Xposition Yposition Zposition Zrotation Xrotation Yrotation
    JOINT Chest
    {
        OFFSET   0.000000   8.007230   0.000000
        CHANNELS 3 Zrotation Xrotation Yrotation
        JOINT Chest2
        {
            OFFSET   0.000000  22.077100   0.000000
            CHANNELS 3 Zrotation Xrotation Yrotation
            JOINT Neck
            {
                OFFSET   0.000000  23.254800  -0.000021
                CHANNELS 3 Zrotation Xrotation Yrotation
                JOINT Head
                {
                    OFFSET   0.000000  14.370000   1.956610
                    CHANNELS 3 Zrotation Xrotation Yrotation
                    End Site
                    {
                        OFFSET   0.000000  19.566000   0.000000
                    }
                }
            }
            JOINT LeftCollar
            {
                OFFSET   3.911900  19.017000  -0.467063
                CHANNELS 3 Zrotation Xrotation Yrotation
                JOINT LeftShoulder
                {
                    OFFSET  10.383700   0.000000   0.000000
                    CHANNELS 3 Zrotation Xrotation Yrotation
                    JOINT LeftElbow
                    {
                        OFFSET  26.662100   0.001529   0.000325
                        CHANNELS 3 Zrotation Xrotation Yrotation
                        JOINT LeftWrist
                        {
                            OFFSET  28.869000  -0.000011  -0.000096
                            CHANNELS 3 Zrotation Xrotation Yrotation
                            JOINT LeftFinger0
                            {
                                OFFSET   2.044650  -2.323460   3.252850
                                CHANNELS 3 Zrotation Xrotation Yrotation
                                JOINT LeftFinger01
                                {
                                    OFFSET   3.088130   0.000000   0.000000
                                    CHANNELS 3 Zrotation Xrotation Yrotation
                                    JOINT LeftFinger02
                                    {
                                        OFFSET   2.639460   0.000000   0.000000
                                        CHANNELS 3 Zrotation Xrotation Yrotation
                                        End Site
                                        {
                                            OFFSET   2.582190   0.000000   0.000000
                                        }
                                    }
                                }
                            }
                            JOINT LeftFinger1
                            {
                                OFFSET   8.364480   0.000000   3.252850
                                CHANNELS 3 Zrotation Xrotation Yrotation
                                JOINT LeftFinger11
                                {
                                    OFFSET   4.646930   0.000000   0.000000
                                    CHANNELS 3 Zrotation Xrotation Yrotation
                                    JOINT LeftFinger12
                                    {
                                        OFFSET   2.323460   0.000000   0.000000
                                        CHANNELS 3 Zrotation Xrotation Yrotation
                                        End Site
                                        {
                                            OFFSET   2.273050   0.000000   0.000000
                                        }
                                    }
                                }
                            }
                            JOINT LeftFinger2
                            {
                                OFFSET   8.364480   0.000016   1.078090
                                CHANNELS 3 Zrotation Xrotation Yrotation
                                JOINT LeftFinger21
                                {
                                    OFFSET   5.111620   0.000000   0.000000
                                    CHANNELS 3 Zrotation Xrotation Yrotation
                                    JOINT LeftFinger22
                                    {
                                        OFFSET   2.788160   0.000017   0.000000
                                        CHANNELS 3 Zrotation Xrotation Yrotation
                                        End Site
                                        {
                                            OFFSET   2.727660   0.000000   0.000000
                                        }
                                    }
                                }
                            }
                            JOINT LeftFinger3
                            {
                                OFFSET   7.899780   0.000015  -1.078090
                                CHANNELS 3 Zrotation Xrotation Yrotation
                                JOINT LeftFinger31
                                {
                                    OFFSET   4.646920   0.000000   0.000000
                                    CHANNELS 3 Zrotation Xrotation Yrotation
                                    JOINT LeftFinger32
                                    {
                                        OFFSET   2.323470   0.000000   0.000000
                                        CHANNELS 3 Zrotation Xrotation Yrotation
                                        End Site
                                        {
                                            OFFSET   2.273050   0.000000   0.000000
                                        }
                                    }
                                }
                            }
                            JOINT LeftFinger4
                            {
                                OFFSET   7.435090   0.000000  -3.252850
                                CHANNELS 3 Zrotation Xrotation Yrotation
                                JOINT LeftFinger41
                                {
                                    OFFSET   3.717550   0.000000   0.000000
                                    CHANNELS 3 Zrotation Xrotation Yrotation
                                    JOINT LeftFinger42
                                    {
                                        OFFSET   1.858760   0.000000   0.000000
                                        CHANNELS 3 Zrotation Xrotation Yrotation
                                        End Site
                                        {
                                            OFFSET   1.818440   0.000000   0.000000
                                        }
                                    }
                                }
                            }
                        }
                    }
                }
            }
            JOINT RightCollar
            {
                OFFSET  -3.911900  19.017000  -0.467062
                CHANNELS 3 Zrotation Xrotation Yrotation
                JOINT RightShoulder
                {
                    OFFSET -10.383700   0.000015   0.000000
                    CHANNELS 3 Zrotation Xrotation Yrotation
                    JOINT RightElbow
                    {
                        OFFSET -26.662100   0.001341   0.000385
                        CHANNELS 3 Zrotation Xrotation Yrotation
                        JOINT RightWrist
                        {
                            OFFSET -28.869000   0.000025  -0.000080
                            CHANNELS 3 Zrotation Xrotation Yrotation
                            JOINT RightFinger0
                            {
                                OFFSET  -2.044650  -2.323490   3.252850
                                CHANNELS 3 Zrotation Xrotation Yrotation
                                JOINT RightFinger01
                                {
                                    OFFSET  -3.088130   0.000000   0.000000
                                    CHANNELS 3 Zrotation Xrotation Yrotation
                                    JOINT RightFinger02
                                    {
                                        OFFSET  -2.639460   0.000000   0.000000
                                        CHANNELS 3 Zrotation Xrotation Yrotation
                                        End Site
                                        {
                                            OFFSET  -2.582190   0.000000   0.000000
                                        }
                                    }
                                }
                            }
                            JOINT RightFinger1
                            {
                                OFFSET  -8.364480   0.000000   3.252850
                                CHANNELS 3 Zrotation Xrotation Yrotation
                                JOINT RightFinger11
                                {
                                    OFFSET  -4.646930   0.000000   0.000000
                                    CHANNELS 3 Zrotation Xrotation Yrotation
                                    JOINT RightFinger12
                                    {
                                        OFFSET  -2.323470   0.000000   0.000000
                                        CHANNELS 3 Zrotation Xrotation Yrotation
                                        End Site
                                        {
                                            OFFSET  -2.273050   0.000000   0.000000
                                        }
                                    }
                                }
                            }
                            JOINT RightFinger2
                            {
                                OFFSET  -8.364480   0.000000   1.078090
                                CHANNELS 3 Zrotation Xrotation Yrotation
                                JOINT RightFinger21
                                {
                                    OFFSET  -5.111610   0.000000   0.000000
                                    CHANNELS 3 Zrotation Xrotation Yrotation
                                    JOINT RightFinger22
                                    {
                                        OFFSET  -2.788160   0.000000   0.000000
                                        CHANNELS 3 Zrotation Xrotation Yrotation
                                        End Site
                                        {
                                            OFFSET  -2.727660   0.000000   0.000000
                                        }
                                    }
                                }
                            }
                            JOINT RightFinger3
                            {
                                OFFSET  -7.899780   0.000000  -1.078090
                                CHANNELS 3 Zrotation Xrotation Yrotation
                                JOINT RightFinger31
                                {
                                    OFFSET  -4.646920   0.000000   0.000000
                                    CHANNELS 3 Zrotation Xrotation Yrotation
                                    JOINT RightFinger32
                                    {
                                        OFFSET  -2.323470   0.000000   0.000000
                                        CHANNELS 3 Zrotation Xrotation Yrotation
                                        End Site
                                        {
                                            OFFSET  -2.273050   0.000000   0.000000
                                        }
                                    }
                                }
                            }
                            JOINT RightFinger4
                            {
                                OFFSET  -7.435090   0.000000  -3.252850
                                CHANNELS 3 Zrotation Xrotation Yrotation
                                JOINT RightFinger41
                                {
                                    OFFSET  -3.717550   0.000000   0.000000
                                    CHANNELS 3 Zrotation Xrotation Yrotation
                                    JOINT RightFinger42
                                    {
                                        OFFSET  -1.858770   0.000000   0.000000
                                        CHANNELS 3 Zrotation Xrotation Yrotation
                                        End Site
                                        {
                                            OFFSET  -1.818440   0.000000   0.000000
                                        }
                                    }
                                }
                            }
                        }
                    }
                }
            }
        }
    }
    JOINT LeftHip
    {
        OFFSET   9.783010   0.000000   0.000000
        CHANNELS 3 Zrotation Xrotation Yrotation
        JOINT LeftKnee
        {
            OFFSET   0.000070 -41.789100   0.000028
            CHANNELS 3 Zrotation Xrotation Yrotation
            JOINT LeftAnkle
            {
                OFFSET   0.000087 -41.133200  -0.000100
                CHANNELS 3 Zrotation Xrotation Yrotation
                JOINT LeftToe
                {
                    OFFSET   0.000000  -6.358960  14.674500
                    CHANNELS 3 Zrotation Xrotation Yrotation
                    End Site
                    {
                        OFFSET   0.000000   0.000000   3.913200
                    }
                }
            }
        }
    }
    JOINT RightHip
    {
        OFFSET  -9.783020   0.000000   0.000000
        CHANNELS 3 Zrotation Xrotation Yrotation
        JOINT RightKnee
        {
            OFFSET   0.000044 -41.789100  -0.000870
            CHANNELS 3 Zrotation Xrotation Yrotation
            JOINT RightAnkle
            {
                OFFSET  -0.000090 -41.133200  -0.000245
                CHANNELS 3 Zrotation Xrotation Yrotation
                JOINT RightToe
                {
                    OFFSET   0.000000  -6.358960  14.674500
                    CHANNELS 3 Zrotation Xrotation Yrotation
                    End Site
                    {
                        OFFSET   0.000000   0.000000   3.913200
                    }
                }
            }
        }
    }
}
MOTION
Frames: 6
Frame Time:   0.016667
 -4.747730  89.251100   0.654829  -2.227550 -16.740700  -4.993470   1.678510  10.947300  -2.793740   4.022750  21.791000  -6.090390  -0.910993  -1.292610  -0.019823  -1.498680  -2.619000  17.618100  -9.876060  -2.711240   6.802440 -71.840300  12.562800 -38.439300  12.390100   3.475860 -59.960100   9.254130 -23.810400 -18.623200  46.398900  33.291000 -44.197900 -20.521800  -0.004975  -0.001740  -5.260910  -0.002524  -0.000652 -11.955900  -0.712955   3.363090  -9.799280  -0.000940  -0.005573  -6.859510   0.007521  -0.004737 -21.548400  -2.927040   7.368840 -21.737000   0.002490   0.000972 -14.476800  -0.001871   0.004984  -8.478560  -1.175720   7.838740  -8.559230  -0.002526  -0.004967  -5.700430  -0.002012  -0.004210 -11.830800  -1.634730   7.756490 -17.912500  -0.003434  -0.000132 -11.929700  -0.001194   0.000297   9.749240   0.788436  14.098100  70.238600  -1.935330  35.862000 -13.941500  -6.311280  61.291700 -19.455000 -18.174100  23.521000 -40.874900  23.123000  59.867800   1.468530  -0.002127   0.000133  -4.265750  -0.003322   0.005970  10.942900   0.524035   2.708690   8.963460   0.008725  -0.003431   6.274390   0.006029  -0.002613  12.340900   0.171595   0.784672  12.342200   0.002776  -0.000710   8.219890   0.001674  -0.003480  15.769600  -0.536915  -1.900220  15.778600   0.002069  -0.005073  10.508500   0.001519  -0.004657  12.699800  -0.433582  -1.926250  19.060900   0.001482  -0.003239  12.694600   0.001486  -0.006770   6.973700  17.745400  -0.590174   0.609976   5.756350  18.871200  -6.467590  -4.562350   0.007433  -0.000000   0.000000   0.000000   1.295570  18.168500  -6.788570   1.056770   3.256840  -8.765500   2.863610  -4.728940   9.143080   0.000000   0.000000   0.000000
 -4.759270  89.237400   0.715086  -2.198370 -16.657500  -4.943630   1.674250  10.927200  -2.787630   4.011310  21.751500  -6.076120  -0.905611  -1.367720  -0.020502  -1.489640  -2.771400  17.711600  -9.871370  -2.683810   6.800470 -71.934300  12.551100 -38.313800  12.393000   3.460080 -60.071800   9.264180 -23.934400 -18.542900  46.272300  33.089000 -44.173900 -20.502200  -0.004979  -0.001732  -5.251070  -0.002533  -0.000640 -11.965700  -0.713945   3.363580  -9.807180  -0.000939  -0.005607  -6.865020   0.007646  -0.004754 -21.544100  -2.946530   7.416750 -21.735800   0.002593   0.000935 -14.476100  -0.001829   0.005023  -8.474330  -1.183600   7.889800  -8.556300  -0.002501  -0.005072  -5.698490  -0.001975  -0.004299 -11.799300  -1.641130   7.807920 -17.867400  -0.003442  -0.000195 -11.899700  -0.001201   0.000219   9.743030   0.803517  14.077500  70.259100  -2.023020  35.827800 -14.013200  -6.411720  61.629900 -19.353600 -18.173900  23.489900 -41.034200  23.335400  59.956600   1.490730  -0.002091   0.000142  -4.254650  -0.003443   0.006060  10.959500   0.524045   2.707200   8.976390   0.008796  -0.003399   6.283470   0.006093  -0.002591  12.381500   0.187452   0.852172  12.382600   0.002764  -0.000674   8.246780   0.001665  -0.003466  15.787100  -0.531118  -1.878920  15.795700   0.002067  -0.005105  10.519900   0.001520  -0.004700  12.734600  -0.429749  -1.904530  19.112700   0.001511  -0.003293  12.729100   0.001502  -0.006912   6.974720  17.683800  -0.581157   0.606384   5.767680  18.837300  -6.484620  -4.585550  -0.002095   0.000000   0.000000   0.000000   1.299080  18.159500  -6.796870   1.080330   3.181990  -8.729580   2.660150  -4.636310   9.033290   0.000000   0.000000   0.000000
 -4.769140  89.223400   0.775435  -2.173700 -16.572500  -4.896600   1.670000  10.905000  -2.782670   3.999740  21.707500  -6.063080  -0.893650  -1.431940  -0.021029  -1.470650  -2.901720  17.807600  -9.863600  -2.672570   6.798600 -72.000500  12.543900 -38.240300  12.370200   3.423320 -60.149600   9.257900 -24.056400 -18.478400  46.242400  32.934900 -44.252600 -20.482500  -0.004983  -0.001728  -5.241220  -0.002541  -0.000631 -11.970100  -0.714086   3.363650  -9.810820  -0.000937  -0.005637  -6.867570   0.007775  -0.004770 -21.542700  -2.953990   7.437640 -21.734600   0.002695   0.000899 -14.475300  -0.001792   0.005063  -8.471460  -1.185960   7.911850  -8.553370  -0.002473  -0.005178  -5.696550  -0.001933  -0.004388 -11.769300  -1.641980   7.830460 -17.822400  -0.003447  -0.000256 -11.869700  -0.001209   0.000140   9.736730   0.809596  14.065600  70.195900  -2.061210  35.819500 -14.100800  -6.547440  61.815100 -19.317400 -18.154900  23.409900 -41.212600  23.552200  60.018300   1.535960  -0.002056   0.000147  -4.232040  -0.003566   0.006153  10.973600   0.524051   2.696780   8.987940   0.008868  -0.003367   6.291560   0.006154  -0.002567  12.409100   0.196612   0.891455  12.409900   0.002755  -0.000642   8.265000   0.001656  -0.003452  15.796100  -0.525321  -1.857610  15.803900   0.002065  -0.005133  10.525400   0.001520  -0.004742  12.757100  -0.425917  -1.882810  19.145100   0.001540  -0.003346  12.750700   0.001519  -0.007053   6.981780  17.625500  -0.573371   0.598536   5.771750  18.806800  -6.500410  -4.605660  -0.011803   0.000000   0.000000   0.000000   1.305950  18.149300  -6.820570   1.106360   3.107840  -8.688240   2.480210  -4.554990   8.943560   0.000000   0.000000  -0.000000
 -4.774460  89.209400   0.836312  -2.157660 -16.491900  -4.850420   1.665500  10.882100  -2.781860   3.988440  21.662200  -6.058510  -0.877141  -1.484890  -0.021585  -1.442060  -3.008950  17.912200  -9.860930  -2.677160   6.815240 -72.027500  12.571300 -38.221400  12.342400   3.325590 -60.179500   9.226460 -24.046600 -18.476600  46.307200  32.959700 -44.551900 -20.489100  -0.004983  -0.001755  -5.244520  -0.002547  -0.000623 -11.985300  -0.700818   3.297270  -9.822630  -0.000964  -0.005651  -6.875820   0.007923  -0.004795 -21.591600  -2.925720   7.346600 -21.778800   0.002808   0.000870 -14.504700  -0.001769   0.005099  -8.508430  -1.177830   7.817070  -8.588920  -0.002432  -0.005305  -5.720220  -0.001892  -0.004472 -11.789400  -1.625880   7.736810 -17.849000  -0.003448  -0.000316 -11.887400  -0.001233   0.000071   9.730570   0.813882  14.084500  70.063200  -2.050910  35.851700 -14.233900  -6.710320  61.845000 -19.429800 -18.093600  23.220200 -41.237200  23.551300  59.957900   1.834890  -0.002005   0.000161  -4.082570  -0.003698   0.006255  11.033800   0.476554   2.440710   9.035320   0.008954  -0.003333   6.324740   0.006209  -0.002528  12.456800   0.151380   0.686306  12.456500   0.002741  -0.000610   8.296040   0.001649  -0.003442  15.819200  -0.580222  -2.047910  15.828100   0.002058  -0.005151  10.541500   0.001533  -0.004779  12.789500  -0.470891  -2.075680  19.194900   0.001572  -0.003377  12.783900   0.001543  -0.007190   6.996510  17.578700  -0.578197   0.587067   5.763370  18.789900  -6.514860  -4.624210  -0.025644  -0.000000   0.000000   0.000000   1.304190  18.140000  -6.885440   1.139070   3.040990  -8.610000   2.320980  -4.477050   8.871040   0.000000   0.000000   0.000000
 -4.778330  89.195300   0.897136  -2.146840 -16.414500  -4.805750   1.660960  10.858000  -2.781420   3.977270  21.614200  -6.055590  -0.858559  -1.528200  -0.022129  -1.410110  -3.096610  18.002000  -9.859400  -2.681750   6.831890 -72.025700  12.617400 -38.226200  12.333900   3.188420 -60.175400   9.199020 -24.025600 -18.473500  46.332900  33.016200 -44.778000 -20.514200  -0.004984  -0.001798  -5.257080  -0.002549  -0.000614 -12.000600  -0.687548   3.230890  -9.834570  -0.000997  -0.005663  -6.884170   0.008067  -0.004820 -21.655100  -2.897440   7.255570 -21.838800   0.002921   0.000842 -14.544600  -0.001746   0.005132  -8.561460  -1.169700   7.722290  -8.640440  -0.002388  -0.005432  -5.754520  -0.001852  -0.004555 -11.824100  -1.609770   7.643170 -17.897400  -0.003448  -0.000374 -11.919700  -0.001261   0.000000   9.724570   0.814827  14.113200  69.903900  -2.013850  35.924900 -14.325400  -6.807770  61.828400 -19.565000 -18.017100  22.982000 -41.212700  23.441700  59.848200   2.214250  -0.001956   0.000171  -3.892880  -0.003828   0.006355  11.115100   0.406523   2.071030   9.099380   0.009038  -0.003297   6.369600   0.006262  -0.002489  12.502000   0.072306   0.328105  12.500800   0.002723  -0.000580   8.325570   0.001642  -0.003433  15.846400  -0.672234  -2.366230  15.859000   0.002047  -0.005168  10.562100   0.001544  -0.004817  12.833100  -0.546811  -2.398210  19.265000   0.001606  -0.003406  12.830500   0.001561  -0.007329   7.015620  17.540300  -0.586886   0.573958   5.743200  18.779300  -6.526250  -4.641150  -0.041819  -0.000000   0.000000   0.000000   1.295860  18.130700  -6.958340   1.172680   2.978150  -8.527000   2.173290  -4.403850   8.808980  -0.000000   0.000000   0.000000
 -4.783590  89.180900   0.957842  -2.140490 -16.341200  -4.763100   1.656910  10.830500  -2.780920   3.966470  21.559600  -6.052370  -0.841549  -1.560920  -0.022686  -1.381400  -3.163210  18.054100  -9.859800  -2.678750   6.831450 -71.999700  12.656700 -38.268400  12.338200   3.045830 -60.141200   9.206470 -23.987200 -18.496600  46.230100  32.891500 -44.655800 -20.581700  -0.004984  -0.001832  -5.290810  -0.002548  -0.000600 -12.010900  -0.690838   3.244380  -9.843110  -0.001005  -0.005689  -6.890160   0.008185  -0.004834 -21.666500  -2.932920   7.340930 -21.854500   0.003025   0.000812 -14.555000  -0.001705   0.005165  -8.584210  -1.186240   7.813190  -8.665160  -0.002346  -0.005541  -5.770980  -0.001821  -0.004639 -11.853500  -1.633250   7.732610 -17.945700  -0.003448  -0.000430 -11.951800  -0.001278  -0.000081   9.721080   0.804070  14.133100  69.747000  -1.931020  36.042100 -14.384400  -6.834990  61.627500 -19.680500 -17.967700  22.679600 -40.957400  23.064400  59.624600   2.464600  -0.001934   0.000172  -3.767700  -0.003940   0.006435  11.233100   0.364034   1.832500   9.195220   0.009106  -0.003262   6.436680   0.006317  -0.002461  12.531100  -0.017800  -0.078961  12.530500   0.002700  -0.000551   8.345320   0.001629  -0.003416  15.883800  -0.765844  -2.688020  15.900700   0.002030  -0.005192  10.589900   0.001541  -0.004863  12.926100  -0.625676  -2.723990  19.410800   0.001639  -0.003448  12.927600   0.001564  -0.007478   7.038800  17.510900  -0.597165   0.558789   5.714500  18.772600  -6.532100  -4.656840  -0.060284   0.000000   0.000000   0.000000   1.298250  18.120800  -7.017930   1.201020   2.918440  -8.452070   2.020920  -4.331550   8.744460   0.000000   0.000000   0.000000
